 http://img687.imageshack.us/img687/6070/10510366426853918870.jpg

Country.......: USA
Genre.........: Comedy, Family
Date release..: 04.01.2011 [World]
Director......: Todd Tucker
Writers.......: Timothy Dolan, Todd Tucker
Duration......: 88 min.
More..........: http://www.imdb.com/title/tt1468727
Trailer.......: http://www.imdb.com/video/wab/vi1088554521
Trailer.......:

Pilot :
Max, the dog Zack, Ashley, is kidnapped by an evil scientist. When Max manages to escape, everything seems normal, but in the night sweet boy turns into a giant monster! Ashley and Zack helps clumsy professor Dr. Lloyd must find a cure for his giant hairy monster before it's too late.

Cats :
Rhiannon Leigh Wryn   	 ...  	Ashley Taylor
Bart Johnson 	... 	Jeff Taylor
Billy Unger 	... 	Zack Taylor
Zack Ward 	... 	Sirus Caldwell
Brian Stepanek 	... 	Dr. Victor Lloyd
Mindy Sterling 	... 	Helen
Juliet Landau 	... 	Natalya
Jacqueline Pinol 	... 	Tawni martinez
Alastair Mackenzie 	... 	Monty
John Kassir 	... 	Pet Shop Pete
Destin Bigsby 	... 	Charlie
Kim Fields 	... 	Valerie Williams
China Anderson 	... 	Nicole Williams
Abby Bankston 	... 	Snotty Little Girl
Brandon Ellison 	... 	Delivery Man 

Data Technical :
!!! SAMPLE !!!
Audio.....: English
Subtitles.: None
Format                           : AVI
Format/Info                      : Audio Video Interleave
File size                        : 701 MiB
Duration                         : 1h 27mn
Overall bit rate                 : 1 114 Kbps
Writing application              : VirtualDubMod 1.5.10.2 (build 2540/release)
Writing library                  : VirtualDubMod build 2540/release
Video
ID                               : 0
Format                           : MPEG-4 Visual
Format profile                   : Advanced Simple@L5
Format settings, BVOP            : Yes
Format settings, QPel            : No
Format settings, GMC             : No warppoints
Format settings, Matrix          : Default (H.263)
Codec ID                         : XVID
Codec ID/Hint                    : XviD
Duration                         : 1h 27mn
Bit rate                         : 940 Kbps
Width                            : 640 pixels
Height                           : 352 pixels
Display aspect ratio             : 16:9
Frame rate                       : 23.976 fps
Color space                      : YUV
Chroma subsampling               : 4:2:0
Bit depth                        : 8 bits
Scan type                        : Progressive
Bits/(Pixel*Frame)               : 0.174
Stream size                      : 591 MiB (84%)
Writing library                  : XviD 63
Audio
ID                               : 1
Format                           : MPEG Audio
Format version                   : Version 1
Format profile                   : Layer 3
Mode                             : Joint stereo
Mode extension                   : MS Stereo
Codec ID                         : 55
Codec ID/Hint                    : MP3
Duration                         : 1h 27mn
Bit rate mode                    : Variable
Bit rate                         : 160 Kbps
Channel(s)                       : 2 channels
Sampling rate                    : 48.0 KHz
Stream size                      : 102 MiB (14%)
Alignment                        : Aligned on interleaves
Interleave, duration             : 24 ms (0.58 video frame)
Interleave, preload duration     : 114 ms
Writing library                  : LAME3.90.
Encoding settings                : -m j -V 4 -q 2 -lowpass 18 --abr 160

Screen : 
http://img844.imageshack.us/img844/3082/monstermutt2011s1.jpg 
http://img62.imageshack.us/img62/6606/monstermutt2011s2.jpg 
http://img69.imageshack.us/img69/434/monstermutt2011s3.jpg 
http://img220.imageshack.us/img220/3449/monstermutt2011s4.jpg 
http://img811.imageshack.us/img811/7043/monstermutt2011s5.jpg